<svg width="25" height="28" viewBox="0 0 25 28" fill="none" xmlns="http://www.w3.org/2000/svg">
<path d="M24.0281 9.06352C23.9799 9.44602 23.5465 9.44602 23.3347 9.11193C22.7087 8.05157 21.8901 7.85305 20.5948 7.75622C19.6318 7.7078 18.5098 7.80463 17.4264 7.80463H17.3782L17.3012 7.76106C17.2576 7.72463 17.2299 7.67249 17.2241 7.6158C17.4167 6.70069 18.1872 5.01573 19.001 4.86079C19.3814 4.81237 20.2529 4.71553 20.7296 4.71553C22.935 4.71069 24.1244 7.27687 24.0281 9.06352ZM11.5181 17.8321C13.1465 18.268 14.8351 18.4316 16.5163 18.3163C18.7179 18.1661 20.8476 17.4672 22.7135 16.2827C22.0201 18.1275 19.261 19.2847 16.6607 19.5607C16.6607 19.7059 16.6126 19.7979 16.6126 19.9432C18.2659 19.8754 19.8791 19.4106 21.3171 18.5874C20.8356 20.3741 18.4279 21.1052 16.2226 21.2505C16.168 21.3826 16.1036 21.5105 16.0299 21.633C17.1213 21.6572 18.2101 21.5185 19.261 21.2214C18.245 23.1097 13.9257 24.417 10.2757 22.674C11.0377 21.1706 11.4649 19.5183 11.5277 17.8321H11.5181ZM23.5947 4.95762C23.1914 4.57178 22.7161 4.27003 22.1963 4.06975C21.6765 3.86948 21.1224 3.77465 20.5659 3.79074C19.1213 3.79074 17.9272 4.17324 16.1455 4.22166C14.9417 4.27008 13.839 1.62159 12.3993 1.27297C12.303 0.988794 12.1404 0.731948 11.9251 0.523954C11.7098 0.315959 11.4481 0.162874 11.1619 0.0775233C10.8756 -0.00782727 10.5732 -0.0229573 10.28 0.0334005C9.98671 0.0897583 9.71116 0.215963 9.4764 0.40144C8.66262 -0.082745 7.3914 0.164189 7.3914 1.09867C6.48132 0.812998 5.3064 1.29234 5.80718 2.55122C3.54883 2.59964 3.16843 4.64775 4.65153 4.82205C2.64357 5.91147 3.55847 7.84821 5.19565 7.48991C5.48938 10.395 6.77986 14.162 4.66597 15.0868C3.6664 15.332 2.61924 15.2985 1.63718 14.9899L0 14.5348V16.0309C1.35663 16.4148 2.76075 16.6023 4.17 16.5878C6.9484 16.3021 7.10249 13.9877 6.9484 11.9493C6.79431 9.91084 6.13944 7.66422 6.37538 6.00346L6.27908 5.90663C5.27269 6.96699 4.59856 6.68132 4.50225 6.33755C4.3915 5.67906 5.56642 4.81237 6.25982 4.52186C6.25982 4.47344 6.30797 4.42502 6.30797 4.3766C5.68199 4.47344 4.91636 4.3766 4.8634 3.94568C4.81043 3.51475 5.91793 2.88531 7.36732 3.03057C7.41548 3.03057 7.41548 2.98215 7.46363 2.98215L7.18434 2.82237C7.11255 2.8057 7.04552 2.77269 6.98841 2.72587C6.9313 2.67905 6.88564 2.61968 6.85494 2.55233C6.82424 2.48498 6.80932 2.41144 6.81133 2.33738C6.81334 2.26332 6.83223 2.19071 6.86654 2.12514C6.9737 2.01275 7.10468 1.9261 7.24974 1.87161C7.39479 1.81712 7.55019 1.79621 7.70439 1.81042C8.15563 1.80228 8.60352 1.88971 9.01895 2.06704C9.06711 2.06704 9.0671 2.01862 9.11526 2.01862C9.00975 1.93492 8.91439 1.83904 8.83116 1.73295C8.77291 1.6659 8.74081 1.57989 8.74081 1.49086C8.74081 1.40183 8.77291 1.31581 8.83116 1.24876C9.01962 1.15497 9.23267 1.12321 9.44009 1.15797C9.64751 1.19273 9.83879 1.29225 9.98682 1.44244L10.2228 1.67969H10.2998L10.3672 1.63611C10.2839 1.54951 10.2329 1.43663 10.2228 1.31655C10.2066 1.28227 10.1974 1.2451 10.1957 1.20721C10.194 1.16932 10.1998 1.13147 10.2128 1.09586C10.2258 1.06026 10.2458 1.02761 10.2714 0.999827C10.2971 0.972044 10.328 0.949682 10.3624 0.934044H10.4106C10.5193 0.914416 10.6314 0.926299 10.7337 0.968308C10.836 1.01032 10.9244 1.08072 10.9884 1.1713C11.1108 1.35696 11.2064 1.55909 11.2725 1.77168C10.7024 1.79676 10.1443 1.9446 9.63587 2.20522C9.12747 2.46583 8.68064 2.83315 8.32556 3.28234C7.93851 3.85783 7.68554 4.5137 7.5855 5.20112C7.48545 5.88853 7.54091 6.58978 7.74773 7.25266C8.09404 8.74056 8.55942 10.1979 9.13933 11.6103V11.6587C10.3046 14.9899 12.51 23.2114 1.81535 27.5691C2.377 27.8388 2.98917 27.9857 3.61143 28H4.71412C6.57359 27.0547 8.19787 25.7011 9.46677 24.0394C14.3687 26.1892 18.8228 25.0949 20.7537 21.5022C21.3587 21.1211 21.8695 20.6066 22.2475 19.9976C22.6254 19.3885 22.8605 18.701 22.935 17.9871C23.2819 17.5534 23.5248 17.0453 23.6451 16.502C23.7653 15.9588 23.7596 15.395 23.6284 14.8544C23.5803 14.6607 23.3925 14.6607 23.0987 14.806C19.1117 17.2269 15.6062 17.5997 11.4266 16.3553C11.3152 15.0372 11.1223 13.7274 10.8487 12.4334C10.7524 10.7436 11.2773 9.91568 14.3254 10.9325C15.6681 11.3022 16.914 11.9633 17.9753 12.8692C18.2931 13.1065 18.7409 13.4018 18.9817 13.1888C19.0585 13.0914 19.1152 12.9795 19.1482 12.8598C19.1813 12.74 19.1902 12.6148 19.1743 12.4915C19.0829 11.4332 18.7851 10.4032 18.2979 9.46055C19.2105 9.41036 20.1252 9.41036 21.0378 9.46055C21.3488 9.47632 21.6479 9.58591 21.8962 9.77504C22.1444 9.96417 22.3302 10.2241 22.4294 10.5209C22.7472 11.4893 24.6396 11.2181 24.7841 10.4241C25.0682 8.73427 25.1645 6.50218 23.5321 4.95762H23.5947ZM2.26316 19.4832C1.51115 19.4348 0.756829 19.4348 0.00481524 19.4832V20.4951C1.2953 20.2095 2.08982 20.0642 2.08982 20.0642L2.26316 19.4832Z" fill="black"/>
</svg>
