<svg width="142" height="16" viewBox="0 0 142 16" fill="none" xmlns="http://www.w3.org/2000/svg">
<path d="M134.312 9.09829C133.584 9.1064 132.858 9.01123 132.157 8.81557L134.265 4.10352L136.374 8.81557C135.705 9.01476 135.01 9.11009 134.312 9.09829ZM141.81 12.6794L136.89 1.88886C136.327 0.710845 135.578 0.19252 134.453 0.19252H134.265C133.094 0.19252 132.344 0.710845 131.782 1.88886L126.861 12.6794C126.393 13.7632 126.721 14.7056 127.705 15.0826C127.91 15.1804 128.132 15.2348 128.359 15.2424C128.586 15.2499 128.812 15.2105 129.023 15.1265C129.234 15.0426 129.425 14.9158 129.586 14.7543C129.746 14.5927 129.871 14.3997 129.954 14.1873L131.079 11.8313C132.171 12.1749 133.309 12.3496 134.453 12.3496C135.552 12.3653 136.646 12.1899 137.686 11.8313L138.764 14.1873C138.847 14.3997 138.972 14.5927 139.133 14.7543C139.293 14.9158 139.484 15.0426 139.695 15.1265C139.906 15.2105 140.132 15.2499 140.359 15.2424C140.586 15.2348 140.809 15.1804 141.013 15.0826C141.223 14.9779 141.41 14.8326 141.564 14.655C141.718 14.4774 141.835 14.271 141.909 14.0476C141.983 13.8243 142.012 13.5884 141.995 13.3536C141.978 13.1188 141.915 12.8897 141.81 12.6794ZM123.581 11.7842H116.036L123.487 5.04593C124.565 4.10352 124.987 3.30247 124.987 2.31294V2.17158C124.987 0.946447 124.237 0.19252 122.878 0.19252H113.36C113.123 0.180341 112.886 0.218318 112.665 0.303995C112.443 0.389671 112.242 0.52114 112.074 0.689903C111.906 0.858666 111.776 1.06097 111.69 1.28372C111.605 1.50648 111.567 1.74474 111.579 1.9831C111.57 2.21665 111.61 2.44959 111.697 2.66622C111.784 2.88285 111.917 3.07813 112.086 3.2389C112.255 3.39966 112.456 3.52217 112.675 3.59816C112.895 3.67416 113.129 3.70187 113.36 3.67943H120.343L113.126 10.2292C111.72 11.5014 111.392 12.2554 111.392 13.1978V13.3862C111.392 14.6114 112.189 15.3653 113.454 15.3653H123.529C123.763 15.3785 123.996 15.3427 124.215 15.2604C124.434 15.1781 124.633 15.0509 124.801 14.887C124.968 14.7231 125.1 14.526 125.187 14.3082C125.275 14.0904 125.317 13.8567 125.31 13.6219C125.344 13.3807 125.324 13.1349 125.25 12.9028C125.176 12.6707 125.052 12.4584 124.885 12.2816C124.718 12.1049 124.514 11.9684 124.287 11.8822C124.061 11.7961 123.817 11.7625 123.576 11.7842H123.581ZM107.784 11.7842H100.239L107.69 5.04593C108.768 4.10352 109.189 3.30247 109.189 2.31294V2.17158C109.189 0.946447 108.44 0.19252 107.081 0.19252H97.5677C97.3307 0.180341 97.0937 0.218318 96.8722 0.303995C96.6506 0.389671 96.4495 0.52114 96.2816 0.689903C96.1138 0.858666 95.983 1.06097 95.8978 1.28372C95.8126 1.50648 95.7748 1.74474 95.787 1.9831C95.7772 2.21665 95.8173 2.44959 95.9047 2.66622C95.992 2.88285 96.1245 3.07813 96.2933 3.2389C96.462 3.39966 96.6631 3.52217 96.883 3.59816C97.1028 3.67416 97.3363 3.70187 97.5677 3.67943H104.55L97.3334 10.2292C95.9275 11.5014 95.5995 12.2554 95.5995 13.1978V13.3862C95.5995 14.6114 96.3962 15.3653 97.6614 15.3653H107.737C107.97 15.3785 108.204 15.3427 108.422 15.2604C108.641 15.1781 108.841 15.0509 109.008 14.887C109.176 14.7231 109.307 14.526 109.395 14.3082C109.483 14.0904 109.524 13.8567 109.518 13.6219C109.611 12.491 108.955 11.7842 107.784 11.7842ZM90.7727 0.00403755C90.5262 -0.0127447 90.279 0.0229145 90.0472 0.108689C89.8153 0.194463 89.6041 0.328425 89.4272 0.501833C89.2503 0.675242 89.1118 0.884201 89.0207 1.11508C88.9295 1.34595 88.8878 1.59356 88.8982 1.84174V13.5276C88.8921 13.7746 88.9368 14.0203 89.0294 14.2492C89.1221 14.478 89.2608 14.6852 89.4367 14.8577C89.6127 15.0302 89.8222 15.1643 90.052 15.2517C90.2819 15.339 90.5273 15.3777 90.7727 15.3653C91.0192 15.3821 91.2664 15.3464 91.4983 15.2607C91.7301 15.1749 91.9414 15.0409 92.1182 14.8675C92.2951 14.6941 92.4337 14.4851 92.5248 14.2543C92.6159 14.0234 92.6576 13.7758 92.6472 13.5276V1.84174C92.646 1.59676 92.5964 1.35446 92.5012 1.12896C92.4059 0.903461 92.2671 0.699256 92.0926 0.528235C91.9182 0.357213 91.7117 0.222793 91.4851 0.132799C91.2585 0.0428049 91.0163 -0.000965002 90.7727 0.00403755ZM80.7911 7.40195H76.5735V3.58519H80.7911C81.0406 3.57998 81.2884 3.62713 81.5187 3.72364C81.7491 3.82014 81.9569 3.96389 82.1289 4.14568C82.3008 4.32748 82.4332 4.54334 82.5176 4.77948C82.6019 5.01562 82.6364 5.26685 82.6187 5.51713C82.6354 5.76497 82.6 6.01355 82.5147 6.24667C82.4294 6.4798 82.2961 6.69221 82.1237 6.87007C81.9512 7.04792 81.7434 7.18722 81.5138 7.27887C81.2842 7.37051 81.0379 7.41245 80.7911 7.40195ZM80.7911 0.145399H74.7459C74.5089 0.133221 74.2719 0.171197 74.0504 0.256874C73.8288 0.34255 73.6277 0.47402 73.4598 0.642783C73.292 0.811545 73.1612 1.01385 73.076 1.2366C72.9908 1.45936 72.9531 1.69762 72.9652 1.93598V13.5747C72.9583 13.8158 73.0013 14.0556 73.0913 14.2791C73.1814 14.5026 73.3166 14.7049 73.4883 14.8732C73.6601 15.0414 73.8647 15.1721 74.0892 15.2568C74.3138 15.3415 74.5533 15.3784 74.7928 15.3653C75.0298 15.3775 75.2668 15.3395 75.4883 15.2538C75.7098 15.1682 75.911 15.0367 76.0789 14.8679C76.2467 14.6992 76.3775 14.4969 76.4627 14.2741C76.5479 14.0513 76.5856 13.8131 76.5735 13.5747V10.8417H80.7911C84.0715 10.8417 86.1334 8.53284 86.1334 5.47001C86.1334 2.40718 84.0293 0.145399 80.7958 0.145399H80.7911ZM58.302 11.9255C55.9121 11.9255 54.225 10.1349 54.225 7.68467C54.225 6.59742 54.6546 5.55471 55.4192 4.7859C56.1838 4.0171 57.2208 3.58519 58.302 3.58519C59.3833 3.58519 60.4203 4.0171 61.1849 4.7859C61.9495 5.55471 62.379 6.59742 62.379 7.68467C62.379 10.1349 60.7857 11.9255 58.302 11.9255ZM58.302 0.00403755C57.2898 -0.0216013 56.2829 0.159186 55.342 0.535494C54.4011 0.911802 53.5458 1.47583 52.8276 2.19357C52.1095 2.91131 51.5433 3.76788 51.1633 4.71162C50.7833 5.65535 50.5974 6.66671 50.6167 7.68467C50.6229 9.7342 51.4386 11.6973 52.8842 13.1421C54.3299 14.5869 56.2872 15.3951 58.3255 15.3889C60.3638 15.3826 62.3161 14.5625 63.753 13.1088C65.1899 11.6552 65.9936 9.68708 65.9874 7.63755C65.9874 3.25535 62.6602 0.00403755 58.302 0.00403755ZM40.9162 11.737H37.8233V3.63231H40.9162C43.3999 3.63231 45.087 5.14017 45.087 7.63755C45.087 10.1349 43.4468 11.737 40.9162 11.737ZM40.9162 0.145399H35.9957C35.7512 0.143354 35.5087 0.191065 35.283 0.285665C35.0572 0.380264 34.8529 0.519796 34.6821 0.695869C34.5114 0.871942 34.3779 1.08092 34.2895 1.31023C34.2012 1.53954 34.1599 1.78444 34.1681 2.03022V13.4334C34.1613 13.6744 34.2042 13.9143 34.2943 14.1377C34.3843 14.3612 34.5195 14.5635 34.6913 14.7318C34.863 14.9001 35.0676 15.0307 35.2922 15.1154C35.5167 15.2001 35.7563 15.2371 35.9957 15.2239H40.9162C45.3213 15.2239 48.6485 12.1611 48.6485 7.63755C48.6485 3.11399 45.3213 0.145399 40.9162 0.145399ZM24.0928 11.9255C21.7028 11.9255 20.0158 10.1349 20.0158 7.68467C20.0158 6.59742 20.4453 5.55471 21.2099 4.7859C21.9745 4.0171 23.0115 3.58519 24.0928 3.58519C25.1741 3.58519 26.2111 4.0171 26.9757 4.7859C27.7402 5.55471 28.1698 6.59742 28.1698 7.68467C28.1698 10.1349 26.5765 11.9255 24.0928 11.9255ZM24.0928 0.00403755C23.0805 -0.0216013 22.0736 0.159186 21.1327 0.535494C20.1919 0.911802 19.3366 1.47583 18.6184 2.19357C17.9002 2.91131 17.334 3.76788 16.954 4.71162C16.5741 5.65535 16.3881 6.66671 16.4074 7.68467C16.4136 9.7342 17.2293 11.6973 18.675 13.1421C20.1207 14.5869 22.0779 15.3951 24.1162 15.3889C26.1545 15.3826 28.1068 14.5625 29.5437 13.1088C30.9806 11.6552 31.7844 9.68708 31.7781 7.63755C31.7781 3.25535 28.451 0.00403755 24.0928 0.00403755ZM6.75384 11.737H3.66095V3.63231H6.75384C9.23753 3.63231 10.9246 5.14017 10.9246 7.63755C10.9246 10.1349 9.23753 11.737 6.75384 11.737ZM6.75384 0.145399H1.82864C1.58409 0.143354 1.34165 0.191065 1.1159 0.285665C0.890161 0.380264 0.685778 0.519796 0.515048 0.695869C0.344319 0.871942 0.210771 1.08092 0.122435 1.31023C0.0340992 1.53954 -0.00719807 1.78444 0.00102569 2.03022V13.4334C-0.00581167 13.6744 0.0371513 13.9143 0.127201 14.1377C0.217251 14.3612 0.352428 14.5635 0.52419 14.7318C0.695952 14.9001 0.900564 15.0307 1.12509 15.1154C1.34962 15.2001 1.58918 15.2371 1.82864 15.2239H6.74915C11.1542 15.2239 14.4814 12.1611 14.4814 7.63755C14.4814 3.11399 11.112 0.145399 6.75384 0.145399Z" fill="#121212"/>
</svg>
