<svg width="14" height="21" viewBox="0 0 14 21" fill="none" xmlns="http://www.w3.org/2000/svg">
<path d="M5.79499 6.6752C4.16334 6.30382 2.35403 5.82901 1.40963 4.42339C1.40963 4.37638 1.36288 4.37638 1.31613 4.37638C1.3095 4.45608 1.32572 4.53602 1.36288 4.60673L1.22262 4.65374C1.09437 4.49614 1.02047 4.30093 1.01204 4.09746C1.0036 3.89399 1.0611 3.69327 1.17587 3.52549C1.37488 3.32394 1.63814 3.19933 1.91942 3.17354C2.20071 3.14775 2.48204 3.22242 2.71402 3.38446L2.66727 3.52549C2.44402 3.46421 2.20671 3.48078 1.99403 3.5725C1.96123 3.58827 1.93227 3.6111 1.90923 3.63938C1.88618 3.66767 1.86961 3.7007 1.86069 3.73615C1.85176 3.77159 1.85071 3.80858 1.85759 3.84448C1.86448 3.88038 1.87914 3.91432 1.90053 3.94388C2.68597 5.47173 5.02358 5.782 7.77261 5.54694C7.84923 5.55605 7.92661 5.53804 7.99146 5.496C8.0563 5.45396 8.10455 5.39053 8.12793 5.31659C8.33258 4.38346 8.78312 3.52286 9.43232 2.82503C8.98581 2.89842 8.53348 2.92989 8.08117 2.91905C6.67861 3.01307 5.84174 2.82503 5.60331 2.64169L5.65006 2.50066C5.69765 2.52578 5.75059 2.5389 5.80434 2.5389C5.85809 2.5389 5.91103 2.52578 5.95862 2.50066C5.96136 2.47515 5.9586 2.44935 5.95053 2.42502C5.94246 2.40068 5.92928 2.37838 5.91187 2.35962C5.65006 2.11047 4.4345 0.845882 4.4345 0.845882C4.29424 -0.268269 2.72804 -0.268269 2.14832 0.765964L1.96131 0.718954C2.00053 0.517743 2.07834 0.326135 2.19039 0.154826C1.61955 0.308204 1.108 0.631205 0.722642 1.0816C0.337281 1.532 0.0960342 2.08883 0.0304415 2.6793C-0.52591 7.46968 6.70198 6.34142 8.76376 8.29237C8.81051 8.33938 8.90401 8.48041 8.95077 8.38639C8.99752 8.29237 8.1139 7.16411 5.78097 6.65169L5.79499 6.6752ZM3.2844 0.892893C3.51844 0.890924 3.74729 0.962291 3.93915 1.09708C4.13101 1.23188 4.27637 1.4234 4.35502 1.64506C4.59346 2.16218 4.54203 2.6746 4.21477 2.82033C3.98071 2.83383 3.74893 2.76798 3.55651 2.63331C3.36409 2.49864 3.22218 2.30295 3.15349 2.07756C3.10674 1.98354 3.10674 1.93653 3.05999 1.84721H3.10674C3.14733 1.89008 3.19926 1.92039 3.25642 1.93455C3.31358 1.94871 3.37358 1.94614 3.42933 1.92713C3.48683 1.86248 3.51862 1.7788 3.51862 1.69207C3.51862 1.60535 3.48683 1.52166 3.42933 1.45702C3.40028 1.38031 3.35013 1.3135 3.28473 1.26439C3.21933 1.21527 3.14138 1.18588 3.05999 1.17966L3.01323 1.13265C3.0809 1.03048 3.17677 0.950416 3.28907 0.902295L3.2844 0.892893ZM14 13.8349C12.1888 14.9866 10.121 15.6668 7.98299 15.8141C6.35891 15.8979 4.73143 15.7395 3.15349 15.344C3.15309 15.8176 3.10611 16.29 3.01323 16.7543C4.37449 17.0767 5.76646 17.2501 7.16483 17.2714C6.85957 18.6374 6.15449 19.8801 5.14046 20.8395C7.61833 20.9288 9.91854 19.9463 10.6338 18.6347C9.62019 18.9487 8.56147 19.0901 7.50145 19.0531C7.5482 18.9121 7.64171 18.8227 7.68846 18.6817C9.83438 18.5877 12.1673 17.8825 12.6348 16.0961C11.2386 16.8953 9.67239 17.3467 8.06715 17.4124C8.06715 17.2714 8.1139 17.1821 8.1139 17.041C10.6151 16.7308 13.2894 15.6307 13.9907 13.8443" fill="white"/>
</svg>
